<?xml version="1.0" standalone="no"?><!DOCTYPE svg PUBLIC "-//W3C//DTD SVG 1.1//EN" "http://www.w3.org/Graphics/SVG/1.1/DTD/svg11.dtd"><svg t="1694272486390" class="icon" viewBox="0 0 1024 1024" version="1.1" xmlns="http://www.w3.org/2000/svg" p-id="12303" xmlns:xlink="http://www.w3.org/1999/xlink" width="200" height="200"><path d="M512.737 954.256c-109.989 0-213.396-42.833-291.171-120.607-77.774-77.774-120.607-181.181-120.607-291.17 0-122.531 54.025-237.854 148.224-316.399 13.073-10.902 32.507-9.139 43.409 3.934 10.901 13.073 9.139 32.509-3.934 43.409C208.546 340.222 162.6 438.289 162.6 542.479c0 193.066 157.07 350.136 350.136 350.136s350.137-157.07 350.137-350.136c0-111.974-54.231-218.08-145.068-283.834-13.788-9.981-16.875-29.25-6.894-43.039 9.981-13.788 29.247-16.878 43.039-6.893 51.667 37.4 94.55 86.99 124.012 143.407 30.455 58.322 46.553 124.147 46.553 190.359 0 109.99-42.833 213.396-120.607 291.17S622.727 954.256 512.737 954.256z" fill="#E75934" p-id="12304"></path><path d="M599 358.702C599 406.363 560.363 445 512.702 445h-0.403C464.637 445 426 406.363 426 358.702V150.298C426 102.637 464.637 64 512.298 64h0.403C560.363 64 599 102.637 599 150.298v208.404z" fill="#E75934" p-id="12305"></path></svg>