<?xml version="1.0" standalone="no"?><!DOCTYPE svg PUBLIC "-//W3C//DTD SVG 1.1//EN" "http://www.w3.org/Graphics/SVG/1.1/DTD/svg11.dtd"><svg t="1701606886229" class="icon" viewBox="0 0 1024 1024" version="1.1" xmlns="http://www.w3.org/2000/svg" p-id="18597" xmlns:xlink="http://www.w3.org/1999/xlink" width="200" height="200"><path d="M288 896c-19.2 0-32-6.4-32-25.6v-6.4c0-19.2 12.8-32 32-32H384v-64H128c-32 0-57.6-25.6-64-57.6V128c0-38.4 25.6-64 64-64h768c38.4 0 64 25.6 64 64v576c0 38.4-25.6 64-64 64h-256v64h96c19.2 0 32 6.4 32 25.6v6.4c0 19.2-12.8 32-32 32h-448zM576 768H448v64h128v-64z m320-640H128v576h768V128zM352 192C403.2 192 448 236.8 448 288v256c0 51.2-44.8 96-96 96S256 595.2 256 544v-256C256 236.8 300.8 192 352 192z m320 0c51.2 0 96 44.8 96 96V320h-64v-32c0-19.2-12.8-32-32-32s-32 12.8-32 32v64c0 19.2 12.8 32 32 32 51.2 0 96 44.8 96 96v64c0 51.2-44.8 96-96 96S576 595.2 576 544V512h64v32c0 19.2 12.8 32 32 32s32-12.8 32-32v-64c0-19.2-12.8-32-32-32C620.8 448 576 403.2 576 352v-64c0-51.2 44.8-96 96-96z m-320 64c-19.2 0-32 12.8-32 32v256c0 19.2 12.8 32 32 32s32-12.8 32-32v-256c0-19.2-12.8-32-32-32z" fill="#2E6BE6" p-id="18598"></path></svg>