<?xml version="1.0" standalone="no"?><!DOCTYPE svg PUBLIC "-//W3C//DTD SVG 1.1//EN" "http://www.w3.org/Graphics/SVG/1.1/DTD/svg11.dtd"><svg t="1694103370717" class="icon" viewBox="0 0 1024 1024" version="1.1" xmlns="http://www.w3.org/2000/svg" p-id="7917" xmlns:xlink="http://www.w3.org/1999/xlink" width="200" height="200"><path d="M167.9 415.5c51.6 0 93.6 41.9 93.6 93.4 0 51.4-42.1 93.4-93.6 93.4-51.6-0.1-93.7-42.1-93.7-93.5s42.1-93.3 93.7-93.3z m416.9-276.4c23.2 0 45.7 2.2 67.6 6.3-0.4 4-0.6 8-0.6 12 0 71.7 58.6 130.1 130.4 130.1 28.3 0 54.4-8.9 75.8-24.3 49.7 56.7 81.9 129 88.4 208.3L798.6 476C786.3 369.3 695 286.1 584.8 286.1c-31.1 0-60.8 6.6-87.5 18.6L423.5 177c48.5-24.3 103.4-37.9 161.3-37.9z m0 0" fill="#FB9200" p-id="7918"></path><path d="M787.2 771.8c51.6 0 93.5 41.9 93.5 93.4 0 51.4-42.1 93.3-93.5 93.3-51.6 0-93.7-41.9-93.7-93.3 0.2-51.5 42.3-93.4 93.7-93.4z m-409.3 25.6c-63-44-111.7-107.3-136.7-181.1 34.4-23.5 57.2-62.9 57.2-107.6 0-46.3-24.6-87.2-61.4-110.2 23.2-78.3 72.4-145.7 137.5-192.1l77.8 125.5c-50.3 39.3-82.7 100.5-82.7 169 0 67.9 31.8 128.5 81.3 167.8l-73 128.7z m0 0" fill="#FAC400" p-id="7919"></path><path d="M946.7 526.3c-6 86.3-42.6 164.3-99.1 223.5-18.6-9.7-39.3-14.8-60.2-14.8-68.6 0-125 53.2-130.1 120.2-23.5 4.7-47.6 7.3-72.4 7.3-54.9 0-109.2-12.4-158.6-36.5l73.6-128c26.1 11.3 54.8 17.4 85 17.4 110.6 0 202.4-84.1 214-191.4l147.8 2.3zM782.2 64.2c51.6 0 93.6 41.9 93.6 93.4 0 51.4-42.1 93.4-93.6 93.4-51.6 0-93.6-41.9-93.6-93.4 0.1-51.5 42.2-93.4 93.6-93.4z m0 0" fill="#E9000C" p-id="7920"></path></svg>