<?xml version="1.0" standalone="no"?><!DOCTYPE svg PUBLIC "-//W3C//DTD SVG 1.1//EN" "http://www.w3.org/Graphics/SVG/1.1/DTD/svg11.dtd"><svg t="1694173952800" class="icon" viewBox="0 0 1024 1024" version="1.1" xmlns="http://www.w3.org/2000/svg" p-id="18197" xmlns:xlink="http://www.w3.org/1999/xlink" width="200" height="200"><path d="M512 192c126.208 0 230.08 106.048 235.52 240.512l0.256 10.88c117.184 0 212.224 101.376 212.224 226.304C960 794.688 864.96 896 747.776 896H276.224C159.04 896 64 794.688 64 669.696 64 544.768 159.04 443.52 276.224 443.52l0.192-10.88C281.92 297.984 385.792 192 512 192z m0 270.464a22.848 22.848 0 0 0-16.64 7.424L395.2 576.512a26.304 26.304 0 0 0-6.08 24.32 24.448 24.448 0 0 0 16.64 17.728 22.592 22.592 0 0 0 22.784-6.464l59.84-63.744v196.8c0 13.888 10.56 25.152 23.552 25.152 12.992 0 23.552-11.264 23.552-25.152V548.224l59.84 63.872c5.888 6.528 14.72 9.152 22.912 6.784a24.448 24.448 0 0 0 16.832-17.92 26.24 26.24 0 0 0-6.464-24.448L528.64 469.888A22.848 22.848 0 0 0 512 462.464z" fill="#FF8F49" p-id="18198"></path></svg>